<?xml version="1.0" standalone="no"?>
<!DOCTYPE svg PUBLIC "-//W3C//DTD SVG 20010904//EN"
 "http://www.w3.org/TR/2001/REC-SVG-20010904/DTD/svg10.dtd">
<svg version="1.0" xmlns="http://www.w3.org/2000/svg"
 width="511.000000pt" height="511.000000pt" viewBox="0 0 511.000000 511.000000"
 preserveAspectRatio="xMidYMid meet">
<metadata>
Created by potrace 1.11, written by Peter Selinger 2001-2013
</metadata>
<g transform="translate(0.000000,511.000000) scale(0.100000,-0.100000)"
fill="#000000" stroke="none">
<path d="M2295 5099 c-331 -39 -581 -112 -860 -249 -182 -89 -262 -138 -425
-259 -102 -77 -316 -277 -396 -371 -331 -389 -533 -850 -599 -1366 -19 -149
-14 -521 9 -669 42 -270 121 -521 237 -755 134 -270 273 -464 479 -671 205
-206 387 -341 624 -465 223 -116 468 -206 650 -238 16 -3 53 -10 81 -16 213
-44 621 -50 855 -11 710 115 1329 510 1729 1102 204 304 364 715 406 1049 3
25 10 77 14 115 11 87 11 426 0 520 -16 131 -20 160 -35 235 -50 248 -146 515
-254 710 -68 121 -82 145 -137 226 -127 190 -345 426 -523 567 -372 295 -810
479 -1290 541 -117 15 -457 18 -565 5z"/>
</g>
</svg>
